<svg width="237" height="131" viewBox="0 0 237 131" fill="none" xmlns="http://www.w3.org/2000/svg">
<path d="M25.1 30.25H12.6L10.7 36H0.4L13.25 0.749998H24.55L37.35 36H27L25.1 30.25ZM22.65 22.75L18.85 11.35L15.1 22.75H22.65ZM63.0441 17.9C65.1108 18.3667 66.7441 19.4 67.9441 21C69.1775 22.5667 69.7941 24.3667 69.7941 26.4C69.7941 29.4 68.7608 31.75 66.6941 33.45C64.6275 35.15 61.7275 36 57.9941 36H40.5441V0.749998H57.4441C61.0441 0.749998 63.8608 1.55 65.8941 3.15C67.9608 4.75 68.9941 7 68.9941 9.9C68.9941 11.9667 68.4441 13.7 67.3441 15.1C66.2775 16.4667 64.8441 17.4 63.0441 17.9ZM50.3441 14.75H55.2941C57.7608 14.75 58.9941 13.7333 58.9941 11.7C58.9941 9.6 57.7608 8.55 55.2941 8.55H50.3441V14.75ZM56.0441 28.1C58.5108 28.1 59.7441 27.0667 59.7441 25C59.7441 23.9333 59.4108 23.1167 58.7441 22.55C58.1108 21.9833 57.1941 21.7 55.9941 21.7H50.3441V28.1H56.0441ZM90.9891 36.35C87.6891 36.35 84.6557 35.5833 81.8891 34.05C79.1224 32.4833 76.9224 30.3333 75.2891 27.6C73.6891 24.8333 72.8891 21.7167 72.8891 18.25C72.8891 14.7833 73.6891 11.6833 75.2891 8.95C76.9224 6.18333 79.1224 4.03333 81.8891 2.5C84.6557 0.966666 87.6891 0.199999 90.9891 0.199999C94.3224 0.199999 97.3557 0.966666 100.089 2.5C102.856 4.03333 105.039 6.18333 106.639 8.95C108.239 11.6833 109.039 14.7833 109.039 18.25C109.039 21.7167 108.239 24.8333 106.639 27.6C105.039 30.3333 102.856 32.4833 100.089 34.05C97.3224 35.5833 94.2891 36.35 90.9891 36.35ZM90.9891 27.25C93.4891 27.25 95.4557 26.4333 96.8891 24.8C98.3557 23.1667 99.0891 20.9833 99.0891 18.25C99.0891 15.45 98.3557 13.25 96.8891 11.65C95.4557 10.0167 93.4891 9.2 90.9891 9.2C88.4557 9.2 86.4724 10.0167 85.0391 11.65C83.6057 13.25 82.8891 15.45 82.8891 18.25C82.8891 21.0167 83.6057 23.2167 85.0391 24.85C86.4724 26.45 88.4557 27.25 90.9891 27.25ZM123.045 0.749998V21.2C123.045 23.1 123.478 24.5667 124.345 25.6C125.245 26.6333 126.595 27.15 128.395 27.15C130.195 27.15 131.545 26.6333 132.445 25.6C133.378 24.5333 133.845 23.0667 133.845 21.2V0.749998H143.645V21.2C143.645 24.4333 142.961 27.2 141.595 29.5C140.228 31.7667 138.361 33.4833 135.995 34.65C133.661 35.7833 131.061 36.35 128.195 36.35C125.328 36.35 122.761 35.7833 120.495 34.65C118.261 33.4833 116.495 31.7667 115.195 29.5C113.928 27.2333 113.295 24.4667 113.295 21.2V0.749998H123.045ZM175.59 0.749998V8.55H166.19V36H156.39V8.55H147.09V0.749998H175.59ZM25.1 77.25H12.6L10.7 83H0.4L13.25 47.75H24.55L37.35 83H27L25.1 77.25ZM22.65 69.75L18.85 58.35L15.1 69.75H22.65ZM50.3441 47.75V83H40.5441V47.75H50.3441ZM82.475 47.75V55.55H73.075V83H63.275V55.55H53.975V47.75H82.475ZM108.401 77.25H95.9008L94.0008 83H83.7008L96.5508 47.75H107.851L120.651 83H110.301L108.401 77.25ZM105.951 69.75L102.151 58.35L98.4008 69.75H105.951ZM132.265 75.15C135.499 72.6167 138.149 70.4333 140.215 68.6C142.282 66.7667 144.015 64.8833 145.415 62.95C146.815 60.9833 147.515 59.1167 147.515 57.35C147.515 56.2833 147.265 55.45 146.765 54.85C146.299 54.25 145.599 53.95 144.665 53.95C143.699 53.95 142.949 54.3667 142.415 55.2C141.882 56 141.632 57.1833 141.665 58.75H132.165C132.265 55.7833 132.915 53.3333 134.115 51.4C135.315 49.4333 136.882 48 138.815 47.1C140.749 46.1667 142.899 45.7 145.265 45.7C149.365 45.7 152.415 46.7167 154.415 48.75C156.415 50.7833 157.415 53.4167 157.415 56.65C157.415 60.1167 156.249 63.3667 153.915 66.4C151.615 69.4333 148.732 72.15 145.265 74.55H157.765V82.5H132.265V75.15ZM161.032 64.2C161.032 58.4667 162.199 53.95 164.532 50.65C166.865 47.35 170.532 45.7 175.532 45.7C180.532 45.7 184.199 47.35 186.532 50.65C188.899 53.95 190.082 58.4667 190.082 64.2C190.082 70 188.915 74.55 186.582 77.85C184.249 81.15 180.565 82.8 175.532 82.8C170.499 82.8 166.815 81.15 164.482 77.85C162.182 74.55 161.032 70 161.032 64.2ZM180.382 64.2C180.382 61.2 180.065 58.9167 179.432 57.35C178.799 55.75 177.499 54.95 175.532 54.95C173.565 54.95 172.265 55.75 171.632 57.35C170.999 58.9167 170.682 61.2 170.682 64.2C170.682 67.2667 170.982 69.6 171.582 71.2C172.215 72.7667 173.532 73.55 175.532 73.55C177.532 73.55 178.832 72.7667 179.432 71.2C180.065 69.6 180.382 67.2667 180.382 64.2ZM193.593 75.15C196.827 72.6167 199.477 70.4333 201.543 68.6C203.61 66.7667 205.343 64.8833 206.743 62.95C208.143 60.9833 208.843 59.1167 208.843 57.35C208.843 56.2833 208.593 55.45 208.093 54.85C207.627 54.25 206.927 53.95 205.993 53.95C205.027 53.95 204.277 54.3667 203.743 55.2C203.21 56 202.96 57.1833 202.993 58.75H193.493C193.593 55.7833 194.243 53.3333 195.443 51.4C196.643 49.4333 198.21 48 200.143 47.1C202.077 46.1667 204.227 45.7 206.593 45.7C210.693 45.7 213.743 46.7167 215.743 48.75C217.743 50.7833 218.743 53.4167 218.743 56.65C218.743 60.1167 217.577 63.3667 215.243 66.4C212.943 69.4333 210.06 72.15 206.593 74.55H219.093V82.5H193.593V75.15ZM221.31 55.65V46.45H236.71V83H226.46V55.65H221.31ZM25.1 124.25H12.6L10.7 130H0.4L13.25 94.75H24.55L37.35 130H27L25.1 124.25ZM22.65 116.75L18.85 105.35L15.1 116.75H22.65ZM90.1941 94.75L81.5441 130H69.4941L64.6441 108.4L59.6941 130H47.6441L39.0941 94.75H49.6941L53.7941 118.85L59.3441 94.75H70.0941L75.4941 118.65L79.5941 94.75H90.1941ZM116.653 124.25H104.153L102.253 130H91.9527L104.803 94.75H116.103L128.903 130H118.553L116.653 124.25ZM114.203 116.75L110.403 105.35L106.653 116.75H114.203ZM149.947 130L142.947 117H141.897V130H132.097V94.75H147.547C150.38 94.75 152.78 95.25 154.747 96.25C156.714 97.2167 158.197 98.5667 159.197 100.3C160.197 102 160.697 103.917 160.697 106.05C160.697 108.45 160.03 110.567 158.697 112.4C157.397 114.2 155.48 115.483 152.947 116.25L160.897 130H149.947ZM141.897 110.3H146.747C148.08 110.3 149.08 109.983 149.747 109.35C150.414 108.717 150.747 107.8 150.747 106.6C150.747 105.467 150.397 104.583 149.697 103.95C149.03 103.283 148.047 102.95 146.747 102.95H141.897V110.3ZM179.104 94.75C182.804 94.75 186.037 95.5 188.804 97C191.604 98.4667 193.754 100.533 195.254 103.2C196.754 105.867 197.504 108.917 197.504 112.35C197.504 115.75 196.737 118.783 195.204 121.45C193.704 124.117 191.554 126.217 188.754 127.75C185.987 129.25 182.77 130 179.104 130H165.154V94.75H179.104ZM178.354 121.35C181.22 121.35 183.47 120.567 185.104 119C186.737 117.433 187.554 115.217 187.554 112.35C187.554 109.45 186.737 107.217 185.104 105.65C183.47 104.05 181.22 103.25 178.354 103.25H174.954V121.35H178.354ZM215.221 130.35C211.121 130.35 207.754 129.383 205.121 127.45C202.488 125.483 201.071 122.683 200.871 119.05H211.321C211.421 120.283 211.788 121.183 212.421 121.75C213.054 122.317 213.871 122.6 214.871 122.6C215.771 122.6 216.504 122.383 217.071 121.95C217.671 121.483 217.971 120.85 217.971 120.05C217.971 119.017 217.488 118.217 216.521 117.65C215.554 117.083 213.988 116.45 211.821 115.75C209.521 114.983 207.654 114.25 206.221 113.55C204.821 112.817 203.588 111.767 202.521 110.4C201.488 109 200.971 107.183 200.971 104.95C200.971 102.683 201.538 100.75 202.671 99.15C203.804 97.5167 205.371 96.2833 207.371 95.45C209.371 94.6167 211.638 94.2 214.171 94.2C218.271 94.2 221.538 95.1667 223.971 97.1C226.438 99 227.754 101.683 227.921 105.15H217.271C217.238 104.083 216.904 103.283 216.271 102.75C215.671 102.217 214.888 101.95 213.921 101.95C213.188 101.95 212.588 102.167 212.121 102.6C211.654 103.033 211.421 103.65 211.421 104.45C211.421 105.117 211.671 105.7 212.171 106.2C212.704 106.667 213.354 107.083 214.121 107.45C214.888 107.783 216.021 108.217 217.521 108.75C219.754 109.517 221.588 110.283 223.021 111.05C224.488 111.783 225.738 112.833 226.771 114.2C227.838 115.533 228.371 117.233 228.371 119.3C228.371 121.4 227.838 123.283 226.771 124.95C225.738 126.617 224.221 127.933 222.221 128.9C220.254 129.867 217.921 130.35 215.221 130.35Z" fill="#575757"/>
</svg>
