<svg width="1005" height="125" viewBox="0 0 1005 125" fill="none" xmlns="http://www.w3.org/2000/svg">
<path opacity="0.25" d="M74.5988 105.75L76.0231 105.279L75.683 104.25H74.5988V105.75ZM37.0988 105.75V104.25H36.0147L35.6746 105.279L37.0988 105.75ZM31.3988 123V124.5H32.4829L32.8231 123.471L31.3988 123ZM0.498828 123L-0.910453 122.486L-1.64454 124.5H0.498828L0.498828 123ZM39.0488 17.25V15.75H37.9991L37.6395 16.7363L39.0488 17.25ZM72.9488 17.25L74.3588 16.738L74 15.75H72.9488V17.25ZM111.349 123V124.5H113.489L112.759 122.488L111.349 123ZM80.2988 123L78.8746 123.471L79.2147 124.5H80.2988V123ZM67.2488 83.25V84.75H69.33L68.6719 82.7757L67.2488 83.25ZM55.8488 49.05L57.2719 48.5757L55.8394 44.2783L54.4239 48.5813L55.8488 49.05ZM44.5988 83.25L43.1739 82.7813L42.5263 84.75L44.5988 84.75V83.25ZM74.5988 104.25L37.0988 104.25V107.25L74.5988 107.25V104.25ZM35.6746 105.279L29.9746 122.529L32.8231 123.471L38.5231 106.221L35.6746 105.279ZM31.3988 121.5H0.498828L0.498828 124.5H31.3988V121.5ZM1.90811 123.514L40.4581 17.7637L37.6395 16.7363L-0.910453 122.486L1.90811 123.514ZM39.0488 18.75L72.9488 18.75V15.75L39.0488 15.75V18.75ZM71.5389 17.762L109.939 123.512L112.759 122.488L74.3588 16.738L71.5389 17.762ZM111.349 121.5H80.2988V124.5H111.349V121.5ZM81.7231 122.529L76.0231 105.279L73.1746 106.221L78.8746 123.471L81.7231 122.529ZM68.6719 82.7757L57.2719 48.5757L54.4258 49.5243L65.8258 83.7243L68.6719 82.7757ZM54.4239 48.5813L43.1739 82.7813L46.0237 83.7187L57.2737 49.5187L54.4239 48.5813ZM44.5988 84.75H67.2488V81.75H44.5988V84.75ZM157.831 50.55H156.331V56.1679L159.132 51.2977L157.831 50.55ZM167.581 41.25L168.277 42.5787L168.29 42.5723L168.302 42.5656L167.581 41.25ZM200.581 43.05L199.765 44.3088L199.776 44.3155L200.581 43.05ZM213.481 58.05L212.127 58.6957L212.131 58.7041L212.135 58.7125L213.481 58.05ZM213.481 103.8L212.132 103.146L212.127 103.154L213.481 103.8ZM200.581 118.8L199.776 117.534L199.765 117.541L200.581 118.8ZM167.581 120.75L166.861 122.066L166.873 122.072L166.885 122.079L167.581 120.75ZM157.831 111.3L159.132 110.552L156.331 105.682V111.3H157.831ZM157.831 123V124.5H159.331V123H157.831ZM128.431 123H126.931V124.5H128.431V123ZM128.431 12V10.5H126.931V12H128.431ZM157.831 12L159.331 12V10.5L157.831 10.5V12ZM183.931 68.1L182.836 69.1247L182.853 69.143L182.871 69.1607L183.931 68.1ZM162.181 68.1L161.103 67.0569L161.095 67.066L161.086 67.0753L162.181 68.1ZM162.181 93.75L161.086 94.7747L161.095 94.784L161.103 94.7931L162.181 93.75ZM183.931 93.75L182.837 92.7241L182.836 92.7253L183.931 93.75ZM159.132 51.2977C161.285 47.552 164.322 44.6503 168.277 42.5787L166.885 39.9212C162.44 42.2497 158.977 45.548 156.531 49.8023L159.132 51.2977ZM168.302 42.5656C172.242 40.4077 176.935 39.3 182.431 39.3V36.3C176.527 36.3 171.32 37.4923 166.861 39.9344L168.302 42.5656ZM182.431 39.3C188.854 39.3 194.619 40.9729 199.765 44.3087L201.397 41.7913C195.744 38.1271 189.408 36.3 182.431 36.3V39.3ZM199.776 44.3155C205.014 47.6489 209.135 52.4222 212.127 58.6957L214.835 57.4043C211.627 50.6778 207.148 45.4511 201.387 41.7845L199.776 44.3155ZM212.135 58.7125C215.216 64.9691 216.781 72.3341 216.781 80.85H219.781C219.781 71.9659 218.147 64.1309 214.827 57.3875L212.135 58.7125ZM216.781 80.85C216.781 89.3651 215.216 96.7841 212.132 103.146L214.831 104.454C218.147 97.6159 219.781 89.7349 219.781 80.85H216.781ZM212.127 103.154C209.135 109.428 205.014 114.201 199.776 117.535L201.387 120.065C207.148 116.399 211.627 111.172 214.835 104.446L212.127 103.154ZM199.765 117.541C194.619 120.877 188.854 122.55 182.431 122.55V125.55C189.408 125.55 195.744 123.723 201.397 120.059L199.765 117.541ZM182.431 122.55C176.925 122.55 172.223 121.488 168.277 119.421L166.885 122.079C171.339 124.412 176.537 125.55 182.431 125.55V122.55ZM168.302 119.434C164.334 117.262 161.289 114.304 159.132 110.552L156.531 112.048C158.974 116.296 162.429 119.638 166.861 122.066L168.302 119.434ZM156.331 111.3V123H159.331V111.3H156.331ZM157.831 121.5L128.431 121.5V124.5L157.831 124.5V121.5ZM129.931 123L129.931 12H126.931L126.931 123H129.931ZM128.431 13.5L157.831 13.5V10.5L128.431 10.5V13.5ZM156.331 12V50.55H159.331V12L156.331 12ZM189.931 80.85C189.931 75.0752 188.35 70.3971 184.992 67.0393L182.871 69.1607C185.513 71.8029 186.931 75.6248 186.931 80.85H189.931ZM185.027 67.0753C181.839 63.6676 177.84 61.95 173.131 61.95V64.95C177.022 64.95 180.224 66.3324 182.836 69.1247L185.027 67.0753ZM173.131 61.95C168.423 61.95 164.385 63.6659 161.103 67.0569L163.259 69.1431C165.978 66.3341 169.239 64.95 173.131 64.95V61.95ZM161.086 67.0753C157.861 70.5229 156.331 75.1771 156.331 80.85H159.331C159.331 75.7229 160.702 71.8771 163.277 69.1247L161.086 67.0753ZM156.331 80.85C156.331 86.6143 157.856 91.3222 161.086 94.7747L163.277 92.7253C160.706 89.9778 159.331 86.0857 159.331 80.85H156.331ZM161.103 94.7931C164.385 98.1841 168.423 99.9 173.131 99.9V96.9C169.239 96.9 165.978 95.5159 163.259 92.7069L161.103 94.7931ZM173.131 99.9C177.84 99.9 181.839 98.1824 185.027 94.7747L182.836 92.7253C180.224 95.5176 177.022 96.9 173.131 96.9V99.9ZM185.026 94.7759C188.343 91.237 189.931 86.5385 189.931 80.85H186.931C186.931 85.9615 185.519 89.863 182.837 92.7241L185.026 94.7759ZM254.384 118.8L253.682 120.125L253.69 120.13L254.384 118.8ZM238.784 103.8L240.079 103.043L238.784 103.8ZM238.784 58.05L237.498 57.2783L237.494 57.2856L237.489 57.2929L238.784 58.05ZM254.534 43.05L253.84 41.7204L253.832 41.7248L254.534 43.05ZM299.684 43.05L298.982 44.3752L298.99 44.3795L299.684 43.05ZM315.434 58.05L314.139 58.807L314.144 58.8144L314.148 58.8217L315.434 58.05ZM315.434 103.8L314.143 103.037L314.139 103.043L315.434 103.8ZM299.684 118.8L298.99 117.47L299.684 118.8ZM287.234 94.05L286.121 93.0446L286.119 93.0466L287.234 94.05ZM287.234 67.8L286.119 68.8034L286.129 68.8135L286.138 68.8235L287.234 67.8ZM266.984 94.05L265.851 95.0324L266.984 94.05ZM277.034 122.55C268.849 122.55 261.542 120.846 255.079 117.47L253.69 120.13C260.627 123.754 268.42 125.55 277.034 125.55V122.55ZM255.087 117.475C248.736 114.107 243.74 109.304 240.079 103.043L237.489 104.557C241.429 111.296 246.833 116.493 253.682 120.125L255.087 117.475ZM240.079 103.043C236.435 96.8089 234.584 89.4293 234.584 80.85H231.584C231.584 89.8707 233.534 97.7911 237.489 104.557L240.079 103.043ZM234.584 80.85C234.584 72.3741 236.433 65.0437 240.079 58.807L237.489 57.2929C233.535 64.0563 231.584 71.9259 231.584 80.85H234.584ZM240.071 58.8217C243.832 52.5523 248.882 47.7453 255.237 44.3752L253.832 41.7248C246.987 45.3547 241.536 50.5477 237.498 57.2783L240.071 58.8217ZM255.229 44.3795C261.692 41.0035 268.999 39.3 277.184 39.3V36.3C268.57 36.3 260.777 38.0965 253.84 41.7205L255.229 44.3795ZM277.184 39.3C285.37 39.3 292.624 41.0036 298.982 44.3752L300.387 41.7248C293.545 38.0964 285.798 36.3 277.184 36.3V39.3ZM298.99 44.3795C305.441 47.7495 310.482 52.5515 314.139 58.807L316.729 57.2929C312.786 50.5485 307.328 45.3505 300.379 41.7205L298.99 44.3795ZM314.148 58.8217C317.889 65.0559 319.784 72.381 319.784 80.85H322.784C322.784 71.919 320.78 64.0441 316.721 57.2783L314.148 58.8217ZM319.784 80.85C319.784 89.3185 317.889 96.6979 314.143 103.037L316.726 104.563C320.78 97.7021 322.784 89.7815 322.784 80.85H319.784ZM314.139 103.043C310.482 109.298 305.441 114.101 298.99 117.47L300.379 120.13C307.328 116.499 312.786 111.302 316.729 104.557L314.139 103.043ZM298.99 117.47C292.527 120.846 285.22 122.55 277.034 122.55V125.55C285.649 125.55 293.442 123.754 300.379 120.13L298.99 117.47ZM277.034 100.05C281.552 100.05 285.36 98.3752 288.349 95.0534L286.119 93.0466C283.709 95.7248 280.717 97.05 277.034 97.05V100.05ZM288.348 95.0554C291.475 91.5928 292.934 86.7848 292.934 80.85H289.934C289.934 86.3152 288.594 90.3072 286.121 93.0446L288.348 95.0554ZM292.934 80.85C292.934 74.919 291.477 70.1468 288.331 66.7765L286.138 68.8235C288.592 71.4532 289.934 75.381 289.934 80.85H292.934ZM288.349 66.7965C285.368 63.4837 281.614 61.8 277.184 61.8V64.8C280.755 64.8 283.701 66.1162 286.119 68.8034L288.349 66.7965ZM277.184 61.8C272.755 61.8 269.001 63.4837 266.019 66.7965L268.249 68.8034C270.668 66.1162 273.614 64.8 277.184 64.8V61.8ZM266.019 66.7965C262.986 70.1673 261.584 74.9316 261.584 80.85H264.584C264.584 75.3684 265.883 71.4327 268.249 68.8034L266.019 66.7965ZM261.584 80.85C261.584 86.8482 262.926 91.6578 265.851 95.0324L268.118 93.0676C265.843 90.4422 264.584 86.4518 264.584 80.85H261.584ZM265.851 95.0324C268.746 98.3733 272.516 100.05 277.034 100.05V97.05C273.353 97.05 270.422 95.7267 268.118 93.0676L265.851 95.0324ZM426.846 38.85H428.346V37.35H426.846V38.85ZM426.846 123V124.5H428.346V123H426.846ZM397.296 123L395.796 123V124.5L397.296 124.5V123ZM397.296 111H398.796V105.991L396.043 110.176L397.296 111ZM386.946 120.3L387.641 121.629L387.652 121.623L387.664 121.617L386.946 120.3ZM348.546 114.15L347.409 115.129L347.417 115.138L347.426 115.148L348.546 114.15ZM340.146 38.85V37.35H338.646V38.85H340.146ZM369.396 38.85H370.896V37.35H369.396V38.85ZM373.146 95.4L372.027 96.399L372.046 96.4201L372.065 96.4405L373.146 95.4ZM393.546 95.4L394.646 96.4191L394.656 96.4091L394.665 96.399L393.546 95.4ZM397.296 38.85V37.35H395.796V38.85H397.296ZM425.346 38.85V123H428.346V38.85H425.346ZM426.846 121.5H397.296V124.5H426.846V121.5ZM398.796 123V111L395.796 111V123L398.796 123ZM396.043 110.176C393.691 113.75 390.434 116.689 386.227 118.983L387.664 121.617C392.258 119.111 395.9 115.85 398.549 111.824L396.043 110.176ZM386.251 118.971C382.095 121.143 377.29 122.25 371.796 122.25V125.25C377.702 125.25 382.996 124.057 387.641 121.629L386.251 118.971ZM371.796 122.25C362.356 122.25 355.039 119.185 349.666 113.152L347.426 115.148C353.452 121.915 361.636 125.25 371.796 125.25V122.25ZM349.682 113.171C344.379 107.015 341.646 98.5985 341.646 87.75H338.646C338.646 99.1015 341.513 108.285 347.409 115.129L349.682 113.171ZM341.646 87.75V38.85H338.646V87.75H341.646ZM340.146 40.35H369.396V37.35H340.146V40.35ZM367.896 38.85V84H370.896V38.85H367.896ZM367.896 84C367.896 89.0626 369.219 93.2543 372.027 96.399L374.265 94.401C372.072 91.9457 370.896 88.5374 370.896 84H367.896ZM372.065 96.4405C374.983 99.4708 378.792 100.95 383.346 100.95V97.95C379.499 97.95 376.508 96.7292 374.226 94.3595L372.065 96.4405ZM383.346 100.95C387.987 100.95 391.814 99.478 394.646 96.4191L392.445 94.3809C390.277 96.722 387.305 97.95 383.346 97.95V100.95ZM394.665 96.399C397.472 93.2543 398.796 89.0626 398.796 84L395.796 84C395.796 88.5374 394.619 91.9457 392.427 94.401L394.665 96.399ZM398.796 84V38.85H395.796V84L398.796 84ZM397.296 40.35L426.846 40.35V37.35L397.296 37.35V40.35ZM500.728 97.95H502.228V96.45H500.728V97.95ZM500.728 123V124.5H502.228V123H500.728ZM455.728 63.3H457.228V61.8H455.728V63.3ZM445.378 63.3H443.878V64.8H445.378V63.3ZM445.378 38.85V37.35H443.878V38.85H445.378ZM455.728 38.85V40.35H457.228V38.85H455.728ZM455.728 18.45V16.95H454.228V18.45H455.728ZM485.278 18.45H486.778V16.95H485.278V18.45ZM485.278 38.85H483.778V40.35H485.278V38.85ZM500.578 38.85H502.078V37.35H500.578V38.85ZM500.578 63.3V64.8H502.078V63.3H500.578ZM485.278 63.3V61.8H483.778V63.3L485.278 63.3ZM486.778 96.45L485.717 97.5107L485.742 97.5359L485.769 97.5599L486.778 96.45ZM499.228 97.95V123H502.228V97.95H499.228ZM500.728 121.5H487.978V124.5H500.728V121.5ZM487.978 121.5C477.455 121.5 469.84 118.894 464.846 113.947C459.854 109.002 457.228 101.465 457.228 91.05H454.228C454.228 101.935 456.976 110.373 462.735 116.078C468.491 121.781 477 124.5 487.978 124.5V121.5ZM457.228 91.05V63.3H454.228V91.05H457.228ZM455.728 61.8H445.378V64.8H455.728V61.8ZM446.878 63.3V38.85H443.878V63.3H446.878ZM445.378 40.35H455.728V37.35H445.378V40.35ZM457.228 38.85V18.45H454.228V38.85H457.228ZM455.728 19.95L485.278 19.95V16.95L455.728 16.95V19.95ZM483.778 18.45V38.85H486.778V18.45H483.778ZM485.278 40.35H500.578V37.35H485.278V40.35ZM499.078 38.85V63.3H502.078V38.85H499.078ZM500.578 61.8H485.278V64.8H500.578V61.8ZM483.778 63.3V91.5L486.778 91.5V63.3L483.778 63.3ZM483.778 91.5C483.778 93.9597 484.303 96.0968 485.717 97.5107L487.838 95.3893C487.252 94.8032 486.778 93.6403 486.778 91.5L483.778 91.5ZM485.769 97.5599C487.28 98.9341 489.541 99.45 492.178 99.45V96.45C489.815 96.45 488.475 95.9659 487.787 95.3401L485.769 97.5599ZM492.178 99.45H500.728V96.45H492.178V99.45ZM624.823 105.75L626.248 105.279L625.908 104.25H624.823V105.75ZM587.323 105.75V104.25H586.239L585.899 105.279L587.323 105.75ZM581.623 123V124.5H582.708L583.048 123.471L581.623 123ZM550.723 123L549.314 122.486L548.58 124.5H550.723V123ZM589.273 17.25V15.75H588.224L587.864 16.7363L589.273 17.25ZM623.173 17.25L624.583 16.738L624.225 15.75H623.173V17.25ZM661.573 123V124.5L663.714 124.5L662.983 122.488L661.573 123ZM630.523 123L629.099 123.471L629.439 124.5H630.523V123ZM617.473 83.25V84.75H619.555L618.896 82.7757L617.473 83.25ZM606.073 49.05L607.496 48.5757L606.064 44.2783L604.649 48.5813L606.073 49.05ZM594.823 83.25L593.399 82.7813L592.751 84.75H594.823V83.25ZM624.823 104.25H587.323V107.25H624.823V104.25ZM585.899 105.279L580.199 122.529L583.048 123.471L588.748 106.221L585.899 105.279ZM581.623 121.5L550.723 121.5V124.5L581.623 124.5V121.5ZM552.133 123.514L590.683 17.7637L587.864 16.7363L549.314 122.486L552.133 123.514ZM589.273 18.75L623.173 18.75V15.75L589.273 15.75V18.75ZM621.763 17.762L660.164 123.512L662.983 122.488L624.583 16.738L621.763 17.762ZM661.573 121.5H630.523V124.5H661.573V121.5ZM631.948 122.529L626.248 105.279L623.399 106.221L629.099 123.471L631.948 122.529ZM618.896 82.7757L607.496 48.5757L604.65 49.5243L616.05 83.7243L618.896 82.7757ZM604.649 48.5813L593.399 82.7813L596.248 83.7187L607.498 49.5187L604.649 48.5813ZM594.823 84.75H617.473V81.75H594.823V84.75ZM708.056 53.7H706.556V58.5295L709.292 54.5498L708.056 53.7ZM735.206 38.1H736.706V36.6H735.206V38.1ZM735.206 69.45V70.95H736.706V69.45H735.206ZM712.706 73.2L713.647 74.3676H713.648L712.706 73.2ZM708.056 123V124.5H709.556V123H708.056ZM678.656 123H677.156V124.5H678.656V123ZM678.656 38.85V37.35H677.156V38.85H678.656ZM708.056 38.85H709.556V37.35H708.056V38.85ZM709.292 54.5498C712.477 49.9164 716.321 46.2708 720.824 43.5886L719.288 41.0113C714.39 43.9292 710.234 47.8836 706.82 52.8502L709.292 54.5498ZM720.824 43.5886C725.295 40.9251 730.08 39.6 735.206 39.6V36.6C729.532 36.6 724.217 38.0749 719.288 41.0113L720.824 43.5886ZM733.706 38.1V69.45H736.706V38.1H733.706ZM735.206 67.95H726.956V70.95H735.206V67.95ZM726.956 67.95C720.407 67.95 715.25 69.2209 711.764 72.0324L713.648 74.3676C716.361 72.1791 720.705 70.95 726.956 70.95V67.95ZM711.764 72.0324C708.152 74.9456 706.556 79.851 706.556 86.25H709.556C709.556 80.249 711.06 76.4544 713.647 74.3676L711.764 72.0324ZM706.556 86.25V123H709.556V86.25H706.556ZM708.056 121.5H678.656V124.5H708.056V121.5ZM680.156 123V38.85H677.156V123H680.156ZM678.656 40.35L708.056 40.35V37.35L678.656 37.35V40.35ZM706.556 38.85V53.7H709.556V38.85H706.556ZM753.846 58.05L755.158 58.7767L753.846 58.05ZM768.846 43.05L768.135 41.7293L768.126 41.7339L768.846 43.05ZM818.046 46.65L817.103 47.8167L817.113 47.8244L818.046 46.65ZM832.146 71.1V72.6H833.975L833.617 70.8058L832.146 71.1ZM800.946 71.1L799.52 71.5666L799.858 72.6H800.946V71.1ZM781.596 67.5L780.372 66.6319L780.367 66.6398L781.596 67.5ZM781.596 94.35L780.354 95.1913L780.363 95.2048L780.372 95.2181L781.596 94.35ZM800.946 90.75V89.25H799.839L799.513 90.307L800.946 90.75ZM832.146 90.75L833.616 91.0469L833.979 89.25H832.146V90.75ZM818.046 115.2L818.989 116.367L818.046 115.2ZM768.846 118.8L768.126 120.116L768.135 120.121L768.846 118.8ZM753.846 103.8L755.158 103.073L753.846 103.8ZM749.946 80.85C749.946 72.3606 751.701 65.019 755.158 58.7767L752.534 57.3232C748.791 64.081 746.946 71.9394 746.946 80.85H749.946ZM755.158 58.7767C758.623 52.5204 763.42 47.727 769.565 44.366L768.126 41.7339C761.472 45.3729 756.268 50.5796 752.534 57.3232L755.158 58.7767ZM769.557 44.3707C775.812 41.0024 782.963 39.3 791.046 39.3V36.3C782.529 36.3 774.879 38.0976 768.135 41.7293L769.557 44.3707ZM791.046 39.3C801.453 39.3 810.107 42.1621 817.103 47.8166L818.989 45.4834C811.385 39.3378 802.038 36.3 791.046 36.3V39.3ZM817.113 47.8244C824.094 53.3715 828.633 61.1873 830.675 71.3942L833.617 70.8058C831.458 60.0127 826.597 51.5285 818.979 45.4756L817.113 47.8244ZM832.146 69.6H800.946V72.6H832.146V69.6ZM802.371 70.6334C801.406 67.6853 799.941 65.3388 797.897 63.733C795.84 62.1167 793.323 61.35 790.446 61.35V64.35C792.769 64.35 794.601 64.9583 796.044 66.092C797.5 67.2362 798.685 69.0147 799.52 71.5666L802.371 70.6334ZM790.446 61.35C786.244 61.35 782.845 63.1484 780.372 66.6319L782.819 68.3681C784.747 65.6516 787.247 64.35 790.446 64.35V61.35ZM780.367 66.6398C778.012 70.0036 776.946 74.8146 776.946 80.85H779.946C779.946 75.0854 780.979 70.9964 782.825 68.3602L780.367 66.6398ZM776.946 80.85C776.946 86.8908 778.014 91.7377 780.354 95.1913L782.838 93.5087C780.977 90.7623 779.946 86.6092 779.946 80.85H776.946ZM780.372 95.2181C782.845 98.7016 786.244 100.5 790.446 100.5V97.5C787.247 97.5 784.747 96.1984 782.819 93.4819L780.372 95.2181ZM790.446 100.5C793.365 100.5 795.91 99.7373 797.972 98.117C800.024 96.5053 801.465 94.1493 802.379 91.193L799.513 90.307C798.726 92.8507 797.568 94.6197 796.119 95.758C794.681 96.8877 792.826 97.5 790.446 97.5V100.5ZM800.946 92.25H832.146V89.25H800.946V92.25ZM830.675 90.4531C828.635 100.558 824.096 108.382 817.103 114.033L818.989 116.367C826.596 110.218 831.456 101.742 833.616 91.0469L830.675 90.4531ZM817.103 114.033C810.107 119.688 801.453 122.55 791.046 122.55V125.55C802.038 125.55 811.385 122.512 818.989 116.367L817.103 114.033ZM791.046 122.55C782.963 122.55 775.812 120.848 769.557 117.479L768.135 120.121C774.879 123.752 782.529 125.55 791.046 125.55V122.55ZM769.565 117.484C763.42 114.123 758.623 109.33 755.158 103.073L752.534 104.527C756.268 111.27 761.472 116.477 768.126 120.116L769.565 117.484ZM755.158 103.073C751.702 96.8334 749.946 89.4427 749.946 80.85H746.946C746.946 89.8573 748.789 97.7666 752.534 104.527L755.158 103.073ZM881.259 12H882.759V10.5H881.259V12ZM881.259 123V124.5H882.759V123H881.259ZM851.859 123H850.359V124.5H851.859V123ZM851.859 12V10.5H850.359V12H851.859ZM879.759 12V123H882.759V12H879.759ZM881.259 121.5H851.859V124.5H881.259V121.5ZM853.359 123V12H850.359V123H853.359ZM851.859 13.5L881.259 13.5V10.5L851.859 10.5V13.5ZM907.752 26.85L906.727 27.9454L906.745 27.9624L906.764 27.9789L907.752 26.85ZM907.752 5.1L906.744 3.98852L906.735 3.99649L906.727 4.00459L907.752 5.1ZM932.652 5.1L931.627 6.1954L931.635 6.20351L931.644 6.21148L932.652 5.1ZM932.652 26.85L933.657 27.9632L933.659 27.9615L932.652 26.85ZM934.902 38.85H936.402V37.35H934.902V38.85ZM934.902 123V124.5H936.402V123H934.902ZM905.502 123H904.002V124.5H905.502V123ZM905.502 38.85V37.35L904.002 37.35V38.85L905.502 38.85ZM920.352 29.55C915.43 29.55 911.608 28.2316 908.739 25.7211L906.764 27.9789C910.295 31.0684 914.873 32.55 920.352 32.55V29.55ZM908.776 25.7546C905.984 23.1424 904.602 19.9409 904.602 16.05H901.602C901.602 20.7591 903.319 24.7576 906.727 27.9454L908.776 25.7546ZM904.602 16.05C904.602 12.0481 905.992 8.80029 908.776 6.19541L906.727 4.00459C903.311 7.1997 901.602 11.2519 901.602 16.05H904.602ZM908.759 6.21148C911.629 3.61051 915.444 2.24999 920.352 2.24999V-0.750009C914.859 -0.750009 910.274 0.789474 906.744 3.98852L908.759 6.21148ZM920.352 2.24999C925.152 2.24999 928.859 3.60597 931.627 6.1954L933.676 4.00459C930.244 0.794018 925.751 -0.750009 920.352 -0.750009V2.24999ZM931.644 6.21148C934.524 8.82108 935.952 12.0643 935.952 16.05L938.952 16.05C938.952 11.2357 937.179 7.17891 933.659 3.98852L931.644 6.21148ZM935.952 16.05C935.952 19.9245 934.532 23.1215 931.644 25.7385L933.659 27.9615C937.171 24.7785 938.952 20.7755 938.952 16.05L935.952 16.05ZM931.646 25.7368C928.88 28.2356 925.166 29.55 920.352 29.55V32.55C925.737 32.55 930.224 31.0643 933.657 27.9632L931.646 25.7368ZM933.402 38.85V123H936.402V38.85H933.402ZM934.902 121.5L905.502 121.5V124.5L934.902 124.5V121.5ZM907.002 123V38.85L904.002 38.85V123H907.002ZM905.502 40.35H934.902V37.35H905.502V40.35ZM1004.59 63.3V64.8H1006.09V63.3H1004.59ZM991.394 63.3V61.8H989.894V63.3H991.394ZM991.394 123V124.5H992.894V123H991.394ZM961.844 123H960.344V124.5H961.844V123ZM961.844 63.3H963.344V61.8H961.844V63.3ZM952.694 63.3H951.194V64.8H952.694V63.3ZM952.694 38.85V37.35H951.194V38.85H952.694ZM961.844 38.85V40.35H963.344V38.85H961.844ZM971.294 13.35L972.301 14.4623L972.301 14.4615L971.294 13.35ZM1004.29 4.79999H1005.79V3.41094L1004.41 3.30441L1004.29 4.79999ZM1004.29 29.85L1004.11 31.3384L1005.79 31.5492V29.85H1004.29ZM993.944 31.95L994.968 33.0466L994.987 33.0289L995.005 33.0107L993.944 31.95ZM991.394 38.85L989.897 38.7564L989.797 40.35H991.394V38.85ZM1004.59 38.85H1006.09V37.35H1004.59V38.85ZM1004.59 61.8L991.394 61.8V64.8H1004.59V61.8ZM989.894 63.3V123H992.894V63.3H989.894ZM991.394 121.5H961.844V124.5H991.394V121.5ZM963.344 123V63.3H960.344V123H963.344ZM961.844 61.8H952.694V64.8H961.844V61.8ZM954.194 63.3V38.85H951.194V63.3H954.194ZM952.694 40.35H961.844V37.35H952.694V40.35ZM963.344 38.85V38.1H960.344V38.85H963.344ZM963.344 38.1C963.344 27.6012 966.396 19.8049 972.301 14.4623L970.288 12.2377C963.593 18.2951 960.344 26.9988 960.344 38.1H963.344ZM972.301 14.4615C978.336 8.99257 987.075 6.14999 998.744 6.14999V3.14999C986.613 3.14999 977.052 6.10742 970.287 12.2385L972.301 14.4615ZM998.744 6.14999C1001.13 6.14999 1002.94 6.20001 1004.18 6.29557L1004.41 3.30441C1003.05 3.19998 1001.16 3.14999 998.744 3.14999V6.14999ZM1002.79 4.79999V29.85L1005.79 29.85V4.79999H1002.79ZM1004.48 28.3616C1003.59 28.2503 1002.42 28.2 1000.99 28.2V31.2C1002.37 31.2 1003.4 31.2497 1004.11 31.3384L1004.48 28.3616ZM1000.99 28.2C997.596 28.2 994.78 28.9929 992.883 30.8893L995.005 33.0107C996.108 31.9071 997.992 31.2 1000.99 31.2V28.2ZM992.921 30.8534C991.018 32.6288 990.108 35.3813 989.897 38.7564L992.891 38.9436C993.08 35.9187 993.87 34.0712 994.968 33.0466L992.921 30.8534ZM991.394 40.35L1004.59 40.35V37.35L991.394 37.35V40.35ZM1003.09 38.85V63.3H1006.09V38.85H1003.09Z" fill="#F4D5CB"/>
</svg>
