<svg width="219" height="46" viewBox="0 0 219 46" fill="none" xmlns="http://www.w3.org/2000/svg">
<path d="M30.12 38.1H15.12L12.84 45H0.48L15.9 2.7H29.46L44.82 45H32.4L30.12 38.1ZM27.18 29.1L22.62 15.42L18.12 29.1H27.18ZM60.413 2.7V45H48.653V2.7H60.413ZM98.97 2.7V12.06H87.69V45H75.93V12.06H64.77V2.7H98.97ZM130.081 38.1H115.081L112.801 45H100.441L115.861 2.7H129.421L144.781 45H132.361L130.081 38.1ZM127.141 29.1L122.581 15.42L118.081 29.1H127.141ZM147.234 35.58C151.114 32.54 154.294 29.92 156.774 27.72C159.254 25.52 161.334 23.26 163.014 20.94C164.694 18.58 165.534 16.34 165.534 14.22C165.534 12.94 165.234 11.94 164.634 11.22C164.074 10.5 163.234 10.14 162.114 10.14C160.954 10.14 160.054 10.64 159.414 11.64C158.774 12.6 158.474 14.02 158.514 15.9H147.114C147.234 12.34 148.014 9.4 149.454 7.08C150.894 4.72 152.774 3 155.094 1.92C157.414 0.799997 159.994 0.239997 162.834 0.239997C167.754 0.239997 171.414 1.46 173.814 3.9C176.214 6.34 177.414 9.5 177.414 13.38C177.414 17.54 176.014 21.44 173.214 25.08C170.454 28.72 166.994 31.98 162.834 34.86H177.834V44.4H147.234V35.58ZM180.494 12.18V1.14H198.974V45H186.674V12.18H180.494Z" fill="#575757"/>
<path d="M211.677 45.48C209.597 45.48 207.917 44.92 206.637 43.8C205.397 42.64 204.777 41.18 204.777 39.42C204.777 37.66 205.397 36.2 206.637 35.04C207.917 33.88 209.597 33.3 211.677 33.3C213.717 33.3 215.357 33.88 216.597 35.04C217.877 36.2 218.517 37.66 218.517 39.42C218.517 41.14 217.877 42.58 216.597 43.74C215.357 44.9 213.717 45.48 211.677 45.48Z" fill="#B57853"/>
</svg>
