<svg width="189" height="57" viewBox="0 0 189 57" fill="none" xmlns="http://www.w3.org/2000/svg">
<g clip-path="url(#clip0_116_18)">
<path d="M39.08 40.8728C37.6657 40.8728 36.4747 39.7262 36.4747 38.2836V29.9611L28.6586 22.0454L20.8425 29.9611V38.2836C20.8425 39.6892 19.6887 40.8728 18.2372 40.8728C16.8229 40.8728 15.6318 39.7262 15.6318 38.2836V29.2953C15.6318 28.3705 16.004 27.5198 16.6368 26.854L26.2021 17.1629C26.8721 16.4971 27.7654 16.1272 28.6586 16.1272C29.5891 16.1272 30.4451 16.4971 31.1151 17.1629L40.6805 26.854C41.3132 27.5198 41.6854 28.3705 41.6854 29.2953V38.2836C41.6854 39.6892 40.5316 40.8728 39.08 40.8728Z" fill="black"/>
<path d="M43.77 57H13.5851C6.10398 57 0 50.9338 0 43.499V13.501C0 6.06619 6.10398 0 13.5851 0H43.8072C51.2883 0 57.3923 6.06619 57.3923 13.501V43.536C57.3551 50.9338 51.2511 57 43.77 57ZM13.5851 5.14147C8.96987 5.14147 5.21071 8.87735 5.21071 13.464V43.499C5.21071 48.0857 8.96987 51.8215 13.5851 51.8215H43.8072C48.4224 51.8215 52.1816 48.0857 52.1816 43.499V13.501C52.1816 8.91434 48.4224 5.17846 43.8072 5.17846H13.5851V5.14147Z" fill="black"/>
<path d="M81.8829 37.9507L80.6918 34.8806H70.717L69.526 38.0247C69.0794 39.2453 68.67 40.0591 68.335 40.5029C68 40.9468 67.479 41.1318 66.7346 41.1318C66.1018 41.1318 65.5436 40.9098 65.0597 40.466C64.5759 40.0221 64.3525 39.5042 64.3525 38.9124C64.3525 38.5795 64.3898 38.2466 64.5014 37.8767C64.6131 37.5068 64.7992 37.026 65.0597 36.3972L71.3498 20.5289C71.5359 20.085 71.7592 19.5302 71.9825 18.9014C72.243 18.2726 72.5036 17.7177 72.8013 17.3109C73.0991 16.904 73.4713 16.5341 73.9179 16.2752C74.3646 16.0162 74.9601 15.8683 75.63 15.8683C76.3372 15.8683 76.8955 16.0162 77.3793 16.2752C77.826 16.5341 78.2354 16.867 78.4959 17.2739C78.7937 17.6807 79.017 18.1246 79.2031 18.6055C79.3892 19.0863 79.6497 19.7151 79.9475 20.4919L86.3492 36.2492C86.8703 37.4329 87.0936 38.3206 87.0936 38.8754C87.0936 39.4303 86.8703 39.9481 86.3864 40.429C85.9026 40.9098 85.3443 41.1318 84.6743 41.1318C84.3021 41.1318 83.9299 41.0578 83.6694 40.9098C83.3716 40.7619 83.1483 40.5769 82.9622 40.355C82.7761 40.1331 82.5528 39.7632 82.3667 39.2453C82.2178 38.7645 82.0317 38.3206 81.8829 37.9507ZM72.0197 31.1817H79.3519L75.63 21.1207L72.0197 31.1817Z" fill="black"/>
<path d="M97.515 30.257H95.7657V38.0986C95.7657 39.1343 95.5424 39.8741 95.0958 40.392C94.6491 40.8728 94.0536 41.1317 93.3092 41.1317C92.5276 41.1317 91.8949 40.8728 91.4483 40.355C91.0016 39.8371 90.7783 39.0973 90.7783 38.0986V19.3082C90.7783 18.2356 91.0016 17.4588 91.4855 16.9779C91.9693 16.4971 92.7509 16.2751 93.8303 16.2751H101.907C103.023 16.2751 103.991 16.3121 104.773 16.4231C105.554 16.5341 106.262 16.719 106.932 17.0149C107.713 17.3478 108.383 17.7917 108.979 18.3835C109.574 18.9753 110.021 19.6781 110.318 20.4549C110.616 21.2317 110.765 22.0824 110.765 22.9701C110.765 24.7826 110.244 26.2622 109.202 27.3348C108.16 28.4075 106.597 29.1843 104.512 29.6652C105.406 30.146 106.224 30.8118 107.043 31.7365C107.862 32.6613 108.569 33.623 109.202 34.6587C109.835 35.6944 110.318 36.6191 110.691 37.4328C111.026 38.2466 111.212 38.8384 111.212 39.1343C111.212 39.4672 111.1 39.7631 110.914 40.096C110.691 40.4289 110.43 40.6509 110.058 40.8358C109.686 41.0208 109.276 41.0947 108.83 41.0947C108.271 41.0947 107.788 40.9468 107.415 40.6879C107.043 40.4289 106.708 40.096 106.448 39.6892C106.187 39.2823 105.815 38.6905 105.331 37.9137L103.321 34.6217C102.614 33.401 101.981 32.4763 101.386 31.8475C100.828 31.2187 100.232 30.7748 99.6738 30.5529C99.1527 30.3679 98.4083 30.257 97.515 30.257ZM100.381 20.011H95.8029V26.706H100.269C101.46 26.706 102.465 26.5951 103.284 26.4101C104.103 26.1882 104.736 25.8553 105.145 25.3744C105.592 24.8936 105.778 24.1908 105.778 23.34C105.778 22.6742 105.592 22.0824 105.257 21.5646C104.922 21.0467 104.438 20.6768 103.805 20.4179C103.247 20.122 102.093 20.011 100.381 20.011Z" fill="black"/>
<path d="M135.999 32.9942C135.999 33.7709 135.813 34.6217 135.404 35.5094C135.032 36.3972 134.399 37.2849 133.58 38.1726C132.761 39.0604 131.682 39.7632 130.417 40.281C129.114 40.8358 127.625 41.0948 125.913 41.0948C124.61 41.0948 123.457 40.9838 122.377 40.7249C121.298 40.466 120.367 40.0961 119.474 39.5782C118.618 39.0604 117.799 38.3946 117.092 37.5438C116.459 36.7671 115.901 35.9163 115.417 34.9546C114.971 33.9929 114.598 32.9942 114.375 31.9215C114.152 30.8488 114.04 29.7022 114.04 28.4815C114.04 26.5211 114.338 24.7456 114.896 23.1921C115.454 21.6386 116.31 20.307 117.353 19.1973C118.432 18.0876 119.697 17.2369 121.112 16.682C122.563 16.0902 124.089 15.8313 125.727 15.8313C127.7 15.8313 129.486 16.2382 131.049 17.0149C132.613 17.7917 133.804 18.7904 134.622 19.9371C135.441 21.0837 135.851 22.1934 135.851 23.2291C135.851 23.7839 135.665 24.3018 135.255 24.7456C134.846 25.1895 134.362 25.4114 133.804 25.4114C133.171 25.4114 132.687 25.2635 132.389 24.9676C132.129 24.6717 131.756 24.1538 131.384 23.414C130.752 22.1934 129.97 21.3057 129.077 20.7138C128.183 20.122 127.104 19.8261 125.839 19.8261C123.792 19.8261 122.154 20.6029 120.963 22.1564C119.735 23.7099 119.139 25.8923 119.139 28.7404C119.139 30.6269 119.4 32.2174 119.958 33.475C120.479 34.7327 121.261 35.6574 122.228 36.2862C123.196 36.915 124.35 37.2109 125.69 37.2109C127.104 37.2109 128.332 36.841 129.3 36.1382C130.305 35.4355 131.049 34.3998 131.533 33.0312C131.756 32.4024 132.017 31.8475 132.315 31.4406C132.613 31.0338 133.134 30.8488 133.804 30.8488C134.399 30.8488 134.92 31.0708 135.33 31.4776C135.813 31.8845 135.999 32.4024 135.999 32.9942Z" fill="black"/>
<path d="M145.342 18.8644V36.6191H155.428C156.247 36.6191 156.843 36.804 157.289 37.2109C157.736 37.6178 157.922 38.0987 157.922 38.6905C157.922 39.2823 157.699 39.7632 157.289 40.133C156.88 40.5029 156.247 40.6879 155.428 40.6879H143.406C142.327 40.6879 141.546 40.466 141.062 39.9851C140.578 39.5042 140.354 38.7275 140.354 37.6548V18.8644C140.354 17.8657 140.578 17.1259 141.024 16.6081C141.471 16.0902 142.067 15.8683 142.811 15.8683C143.555 15.8683 144.151 16.1272 144.635 16.6081C145.119 17.1259 145.342 17.8657 145.342 18.8644Z" fill="black"/>
<path d="M161.421 38.0987V18.8644C161.421 17.8657 161.644 17.1259 162.091 16.6081C162.537 16.0902 163.133 15.8683 163.877 15.8683C164.622 15.8683 165.217 16.1272 165.701 16.6081C166.148 17.0889 166.408 17.8657 166.408 18.8644V38.0987C166.408 39.0974 166.185 39.8741 165.701 40.355C165.254 40.8728 164.622 41.0948 163.877 41.0948C163.17 41.0948 162.575 40.8358 162.128 40.355C161.644 39.8741 161.421 39.0974 161.421 38.0987Z" fill="black"/>
<path d="M186.618 20.122H176.829V26.3731H185.017C185.762 26.3731 186.357 26.5581 186.729 26.891C187.102 27.2239 187.288 27.6677 187.288 28.2596C187.288 28.8144 187.102 29.2583 186.729 29.5912C186.357 29.9241 185.799 30.109 185.055 30.109H176.866V38.1356C176.866 39.1713 176.643 39.9111 176.159 40.392C175.713 40.8728 175.117 41.1317 174.373 41.1317C173.628 41.1317 173.033 40.8728 172.586 40.392C172.139 39.8741 171.879 39.1343 171.879 38.1356V19.3082C171.879 18.6055 171.991 18.0136 172.214 17.5698C172.437 17.1259 172.772 16.793 173.219 16.5711C173.665 16.3491 174.261 16.2751 174.968 16.2751H186.692C187.474 16.2751 188.069 16.4601 188.479 16.793C188.851 17.1259 189.074 17.6067 189.074 18.1616C189.074 18.7534 188.888 19.1973 188.479 19.5672C188.032 19.9371 187.437 20.122 186.618 20.122Z" fill="black"/>
</g>
<defs>
<clipPath id="clip0_116_18">
<rect width="189" height="57" fill="white"/>
</clipPath>
</defs>
</svg>
