<svg width="237" height="75" viewBox="0 0 237 75" fill="none" xmlns="http://www.w3.org/2000/svg">
<path d="M26.5271 37.5146C25.7979 35.1709 25.8125 30.6445 26.2354 30.6445C27.4604 30.6445 27.3437 36.0498 26.5271 37.5146ZM26.2792 44.4287C25.1562 47.3877 23.7562 50.7715 22.1375 53.6133C24.8062 52.5879 27.825 51.0938 31.3104 50.4053C29.4583 48.999 27.6792 46.9775 26.2792 44.4287ZM12.5562 62.71C12.5562 62.8271 14.4812 61.9189 17.6458 56.8213C16.6687 57.7441 13.4021 60.4102 12.5562 62.71ZM36.1667 23.4375H56V71.4844C56 73.4326 54.4396 75 52.5 75H3.5C1.56042 75 0 73.4326 0 71.4844V3.51562C0 1.56738 1.56042 0 3.5 0H32.6667V19.9219C32.6667 21.8555 34.2417 23.4375 36.1667 23.4375ZM35 48.6035C32.0833 46.8164 30.1437 44.3555 28.7729 40.7227C29.4292 38.0127 30.4646 33.8965 29.6771 31.3184C28.9917 27.0117 23.4937 27.4365 22.7062 30.3223C21.9771 33.0029 22.6479 36.7822 23.8875 41.6016C22.1958 45.6445 19.7021 51.0645 17.9375 54.1699C17.9229 54.1699 17.9229 54.1846 17.9083 54.1846C13.9562 56.2207 7.175 60.7031 9.96042 64.1455C10.7771 65.1562 12.2938 65.6104 13.0958 65.6104C15.7062 65.6104 18.3021 62.9736 22.0062 56.5576C25.7687 55.3125 29.8958 53.7598 33.5271 53.1592C36.6917 54.8877 40.3958 56.0156 42.8604 56.0156C47.1187 56.0156 47.4104 51.3281 45.7333 49.6582C43.7062 47.666 37.8146 48.2373 35 48.6035V48.6035ZM54.9792 15.3809L40.6875 1.02539C40.0312 0.366211 39.1417 0 38.2083 0H37.3333V18.75H56V17.8564C56 16.9336 55.6354 16.04 54.9792 15.3809ZM44.1729 52.7783C44.7708 52.3828 43.8083 51.0352 37.9312 51.46C43.3417 53.7744 44.1729 52.7783 44.1729 52.7783Z" fill="#C79170"/>
<path d="M88.26 16.04C89.7267 16.04 91.0133 16.3267 92.12 16.9C93.24 17.4733 94.1 18.2933 94.7 19.36C95.3133 20.4133 95.62 21.64 95.62 23.04C95.62 24.44 95.3133 25.6667 94.7 26.72C94.1 27.76 93.24 28.5667 92.12 29.14C91.0133 29.7133 89.7267 30 88.26 30H83.38V16.04H88.26ZM88.16 27.62C89.6267 27.62 90.76 27.22 91.56 26.42C92.36 25.62 92.76 24.4933 92.76 23.04C92.76 21.5867 92.36 20.4533 91.56 19.64C90.76 18.8133 89.6267 18.4 88.16 18.4H86.18V27.62H88.16ZM102.636 30.18C101.569 30.18 100.609 29.9467 99.7559 29.48C98.9026 29 98.2293 28.3267 97.7359 27.46C97.2559 26.5933 97.0159 25.5933 97.0159 24.46C97.0159 23.3267 97.2626 22.3267 97.7559 21.46C98.2626 20.5933 98.9493 19.9267 99.8159 19.46C100.683 18.98 101.649 18.74 102.716 18.74C103.783 18.74 104.749 18.98 105.616 19.46C106.483 19.9267 107.163 20.5933 107.656 21.46C108.163 22.3267 108.416 23.3267 108.416 24.46C108.416 25.5933 108.156 26.5933 107.636 27.46C107.129 28.3267 106.436 29 105.556 29.48C104.689 29.9467 103.716 30.18 102.636 30.18ZM102.636 27.74C103.143 27.74 103.616 27.62 104.056 27.38C104.509 27.1267 104.869 26.7533 105.136 26.26C105.403 25.7667 105.536 25.1667 105.536 24.46C105.536 23.4067 105.256 22.6 104.696 22.04C104.149 21.4667 103.476 21.18 102.676 21.18C101.876 21.18 101.203 21.4667 100.656 22.04C100.123 22.6 99.8559 23.4067 99.8559 24.46C99.8559 25.5133 100.116 26.3267 100.636 26.9C101.169 27.46 101.836 27.74 102.636 27.74ZM125.83 18.92L122.59 30H119.57L117.55 22.26L115.53 30H112.49L109.23 18.92H112.07L114.03 27.36L116.15 18.92H119.11L121.19 27.34L123.15 18.92H125.83ZM133.485 18.76C134.805 18.76 135.872 19.18 136.685 20.02C137.498 20.8467 137.905 22.0067 137.905 23.5V30H135.105V23.88C135.105 23 134.885 22.3267 134.445 21.86C134.005 21.38 133.405 21.14 132.645 21.14C131.872 21.14 131.258 21.38 130.805 21.86C130.365 22.3267 130.145 23 130.145 23.88V30H127.345V18.92H130.145V20.3C130.518 19.82 130.992 19.4467 131.565 19.18C132.152 18.9 132.792 18.76 133.485 18.76ZM143.368 15.2V30H140.568V15.2H143.368ZM151.054 30.18C149.987 30.18 149.027 29.9467 148.174 29.48C147.321 29 146.647 28.3267 146.154 27.46C145.674 26.5933 145.434 25.5933 145.434 24.46C145.434 23.3267 145.681 22.3267 146.174 21.46C146.681 20.5933 147.367 19.9267 148.234 19.46C149.101 18.98 150.067 18.74 151.134 18.74C152.201 18.74 153.167 18.98 154.034 19.46C154.901 19.9267 155.581 20.5933 156.074 21.46C156.581 22.3267 156.834 23.3267 156.834 24.46C156.834 25.5933 156.574 26.5933 156.054 27.46C155.547 28.3267 154.854 29 153.974 29.48C153.107 29.9467 152.134 30.18 151.054 30.18ZM151.054 27.74C151.561 27.74 152.034 27.62 152.474 27.38C152.927 27.1267 153.287 26.7533 153.554 26.26C153.821 25.7667 153.954 25.1667 153.954 24.46C153.954 23.4067 153.674 22.6 153.114 22.04C152.567 21.4667 151.894 21.18 151.094 21.18C150.294 21.18 149.621 21.4667 149.074 22.04C148.541 22.6 148.274 23.4067 148.274 24.46C148.274 25.5133 148.534 26.3267 149.054 26.9C149.587 27.46 150.254 27.74 151.054 27.74ZM158.168 24.42C158.168 23.3 158.388 22.3067 158.828 21.44C159.281 20.5733 159.888 19.9067 160.648 19.44C161.421 18.9733 162.281 18.74 163.228 18.74C164.054 18.74 164.774 18.9067 165.388 19.24C166.014 19.5733 166.514 19.9933 166.888 20.5V18.92H169.708V30H166.888V28.38C166.528 28.9 166.028 29.3333 165.388 29.68C164.761 30.0133 164.034 30.18 163.208 30.18C162.274 30.18 161.421 29.94 160.648 29.46C159.888 28.98 159.281 28.3067 158.828 27.44C158.388 26.56 158.168 25.5533 158.168 24.42ZM166.888 24.46C166.888 23.78 166.754 23.2 166.488 22.72C166.221 22.2267 165.861 21.8533 165.408 21.6C164.954 21.3333 164.468 21.2 163.948 21.2C163.428 21.2 162.948 21.3267 162.508 21.58C162.068 21.8333 161.708 22.2067 161.428 22.7C161.161 23.18 161.028 23.7533 161.028 24.42C161.028 25.0867 161.161 25.6733 161.428 26.18C161.708 26.6733 162.068 27.0533 162.508 27.32C162.961 27.5867 163.441 27.72 163.948 27.72C164.468 27.72 164.954 27.5933 165.408 27.34C165.861 27.0733 166.221 26.7 166.488 26.22C166.754 25.7267 166.888 25.14 166.888 24.46ZM171.722 24.42C171.722 23.3 171.942 22.3067 172.382 21.44C172.836 20.5733 173.449 19.9067 174.223 19.44C174.996 18.9733 175.856 18.74 176.803 18.74C177.523 18.74 178.209 18.9 178.863 19.22C179.516 19.5267 180.036 19.94 180.423 20.46V15.2H183.263V30H180.423V28.36C180.076 28.9067 179.589 29.3467 178.963 29.68C178.336 30.0133 177.609 30.18 176.783 30.18C175.849 30.18 174.996 29.94 174.223 29.46C173.449 28.98 172.836 28.3067 172.382 27.44C171.942 26.56 171.722 25.5533 171.722 24.42ZM180.443 24.46C180.443 23.78 180.309 23.2 180.043 22.72C179.776 22.2267 179.416 21.8533 178.963 21.6C178.509 21.3333 178.023 21.2 177.503 21.2C176.983 21.2 176.503 21.3267 176.062 21.58C175.623 21.8333 175.263 22.2067 174.983 22.7C174.716 23.18 174.583 23.7533 174.583 24.42C174.583 25.0867 174.716 25.6733 174.983 26.18C175.263 26.6733 175.623 27.0533 176.062 27.32C176.516 27.5867 176.996 27.72 177.503 27.72C178.023 27.72 178.509 27.5933 178.963 27.34C179.416 27.0733 179.776 26.7 180.043 26.22C180.309 25.7267 180.443 25.14 180.443 24.46ZM86.18 48.3V51.8H90.88V54.02H86.18V57.72H91.48V60H83.38V46.02H91.48V48.3H86.18ZM98.6445 57.42L101.445 48.92H104.425L100.325 60H96.9245L92.8445 48.92H95.8445L98.6445 57.42ZM116.297 54.22C116.297 54.62 116.271 54.98 116.217 55.3H108.117C108.184 56.1 108.464 56.7267 108.957 57.18C109.451 57.6333 110.057 57.86 110.777 57.86C111.817 57.86 112.557 57.4133 112.997 56.52H116.017C115.697 57.5867 115.084 58.4667 114.177 59.16C113.271 59.84 112.157 60.18 110.837 60.18C109.771 60.18 108.811 59.9467 107.957 59.48C107.117 59 106.457 58.3267 105.977 57.46C105.511 56.5933 105.277 55.5933 105.277 54.46C105.277 53.3133 105.511 52.3067 105.977 51.44C106.444 50.5733 107.097 49.9067 107.937 49.44C108.777 48.9733 109.744 48.74 110.837 48.74C111.891 48.74 112.831 48.9667 113.657 49.42C114.497 49.8733 115.144 50.52 115.597 51.36C116.064 52.1867 116.297 53.14 116.297 54.22ZM113.397 53.42C113.384 52.7 113.124 52.1267 112.617 51.7C112.111 51.26 111.491 51.04 110.757 51.04C110.064 51.04 109.477 51.2533 108.997 51.68C108.531 52.0933 108.244 52.6733 108.137 53.42H113.397ZM124.481 48.76C125.801 48.76 126.868 49.18 127.681 50.02C128.494 50.8467 128.901 52.0067 128.901 53.5V60H126.101V53.88C126.101 53 125.881 52.3267 125.441 51.86C125.001 51.38 124.401 51.14 123.641 51.14C122.868 51.14 122.254 51.38 121.801 51.86C121.361 52.3267 121.141 53 121.141 53.88V60H118.341V48.92H121.141V50.3C121.514 49.82 121.988 49.4467 122.561 49.18C123.148 48.9 123.788 48.76 124.481 48.76ZM134.824 51.22V56.58C134.824 56.9533 134.91 57.2267 135.084 57.4C135.27 57.56 135.577 57.64 136.004 57.64H137.304V60H135.544C133.184 60 132.004 58.8533 132.004 56.56V51.22H130.684V48.92H132.004V46.18H134.824V48.92H137.304V51.22H134.824ZM146.883 50.54C147.243 50.0067 147.736 49.5733 148.363 49.24C149.003 48.9067 149.73 48.74 150.543 48.74C151.49 48.74 152.343 48.9733 153.103 49.44C153.876 49.9067 154.483 50.5733 154.923 51.44C155.376 52.2933 155.603 53.2867 155.603 54.42C155.603 55.5533 155.376 56.56 154.923 57.44C154.483 58.3067 153.876 58.98 153.103 59.46C152.343 59.94 151.49 60.18 150.543 60.18C149.716 60.18 148.99 60.02 148.363 59.7C147.75 59.3667 147.256 58.94 146.883 58.42V60H144.083V45.2H146.883V50.54ZM152.743 54.42C152.743 53.7533 152.603 53.18 152.323 52.7C152.056 52.2067 151.696 51.8333 151.243 51.58C150.803 51.3267 150.323 51.2 149.803 51.2C149.296 51.2 148.816 51.3333 148.363 51.6C147.923 51.8533 147.563 52.2267 147.283 52.72C147.016 53.2133 146.883 53.7933 146.883 54.46C146.883 55.1267 147.016 55.7067 147.283 56.2C147.563 56.6933 147.923 57.0733 148.363 57.34C148.816 57.5933 149.296 57.72 149.803 57.72C150.323 57.72 150.803 57.5867 151.243 57.32C151.696 57.0533 152.056 56.6733 152.323 56.18C152.603 55.6867 152.743 55.1 152.743 54.42ZM160.438 50.64C160.798 50.0533 161.264 49.5933 161.838 49.26C162.424 48.9267 163.091 48.76 163.838 48.76V51.7H163.098C162.218 51.7 161.551 51.9067 161.098 52.32C160.658 52.7333 160.438 53.4533 160.438 54.48V60H157.638V48.92H160.438V50.64ZM170.644 60.18C169.577 60.18 168.617 59.9467 167.764 59.48C166.91 59 166.237 58.3267 165.744 57.46C165.264 56.5933 165.024 55.5933 165.024 54.46C165.024 53.3267 165.27 52.3267 165.764 51.46C166.27 50.5933 166.957 49.9267 167.824 49.46C168.69 48.98 169.657 48.74 170.724 48.74C171.79 48.74 172.757 48.98 173.624 49.46C174.49 49.9267 175.17 50.5933 175.664 51.46C176.17 52.3267 176.424 53.3267 176.424 54.46C176.424 55.5933 176.164 56.5933 175.644 57.46C175.137 58.3267 174.444 59 173.564 59.48C172.697 59.9467 171.724 60.18 170.644 60.18ZM170.644 57.74C171.15 57.74 171.624 57.62 172.064 57.38C172.517 57.1267 172.877 56.7533 173.144 56.26C173.41 55.7667 173.544 55.1667 173.544 54.46C173.544 53.4067 173.264 52.6 172.704 52.04C172.157 51.4667 171.484 51.18 170.684 51.18C169.884 51.18 169.21 51.4667 168.664 52.04C168.13 52.6 167.864 53.4067 167.864 54.46C167.864 55.5133 168.124 56.3267 168.644 56.9C169.177 57.46 169.844 57.74 170.644 57.74ZM177.758 54.46C177.758 53.3133 177.991 52.3133 178.458 51.46C178.924 50.5933 179.571 49.9267 180.398 49.46C181.224 48.98 182.171 48.74 183.238 48.74C184.611 48.74 185.744 49.0867 186.638 49.78C187.544 50.46 188.151 51.42 188.458 52.66H185.438C185.278 52.18 185.004 51.8067 184.618 51.54C184.244 51.26 183.778 51.12 183.218 51.12C182.418 51.12 181.784 51.4133 181.318 52C180.851 52.5733 180.618 53.3933 180.618 54.46C180.618 55.5133 180.851 56.3333 181.318 56.92C181.784 57.4933 182.418 57.78 183.218 57.78C184.351 57.78 185.091 57.2733 185.438 56.26H188.458C188.151 57.46 187.544 58.4133 186.638 59.12C185.731 59.8267 184.598 60.18 183.238 60.18C182.171 60.18 181.224 59.9467 180.398 59.48C179.571 59 178.924 58.3333 178.458 57.48C177.991 56.6133 177.758 55.6067 177.758 54.46ZM196.749 48.76C197.589 48.76 198.336 48.9467 198.989 49.32C199.642 49.68 200.149 50.22 200.509 50.94C200.882 51.6467 201.069 52.5 201.069 53.5V60H198.269V53.88C198.269 53 198.049 52.3267 197.609 51.86C197.169 51.38 196.569 51.14 195.809 51.14C195.036 51.14 194.422 51.38 193.969 51.86C193.529 52.3267 193.309 53 193.309 53.88V60H190.509V45.2H193.309V50.3C193.669 49.82 194.149 49.4467 194.749 49.18C195.349 48.9 196.016 48.76 196.749 48.76ZM214.192 48.92V60H211.372V58.6C211.012 59.08 210.538 59.46 209.952 59.74C209.378 60.0067 208.752 60.14 208.072 60.14C207.205 60.14 206.438 59.96 205.772 59.6C205.105 59.2267 204.578 58.6867 204.192 57.98C203.818 57.26 203.632 56.4067 203.632 55.42V48.92H206.432V55.02C206.432 55.9 206.652 56.58 207.092 57.06C207.532 57.5267 208.132 57.76 208.892 57.76C209.665 57.76 210.272 57.5267 210.712 57.06C211.152 56.58 211.372 55.9 211.372 55.02V48.92H214.192ZM219.754 50.64C220.114 50.0533 220.581 49.5933 221.154 49.26C221.741 48.9267 222.408 48.76 223.154 48.76V51.7H222.414C221.534 51.7 220.868 51.9067 220.414 52.32C219.974 52.7333 219.754 53.4533 219.754 54.48V60H216.954V48.92H219.754V50.64ZM235.34 54.22C235.34 54.62 235.313 54.98 235.26 55.3H227.16C227.227 56.1 227.507 56.7267 228 57.18C228.493 57.6333 229.1 57.86 229.82 57.86C230.86 57.86 231.6 57.4133 232.04 56.52H235.06C234.74 57.5867 234.127 58.4667 233.22 59.16C232.313 59.84 231.2 60.18 229.88 60.18C228.813 60.18 227.853 59.9467 227 59.48C226.16 59 225.5 58.3267 225.02 57.46C224.553 56.5933 224.32 55.5933 224.32 54.46C224.32 53.3133 224.553 52.3067 225.02 51.44C225.487 50.5733 226.14 49.9067 226.98 49.44C227.82 48.9733 228.787 48.74 229.88 48.74C230.933 48.74 231.873 48.9667 232.7 49.42C233.54 49.8733 234.187 50.52 234.64 51.36C235.107 52.1867 235.34 53.14 235.34 54.22ZM232.44 53.42C232.427 52.7 232.167 52.1267 231.66 51.7C231.153 51.26 230.533 51.04 229.8 51.04C229.107 51.04 228.52 51.2533 228.04 51.68C227.573 52.0933 227.287 52.6733 227.18 53.42H232.44Z" fill="#575757"/>
</svg>
