<svg width="313" height="152" viewBox="0 0 313 152" fill="none" xmlns="http://www.w3.org/2000/svg">
<path d="M25.95 0.899999V7.75H11.65V15.15H22.35V21.8H11.65V36H3.1V0.899999H25.95ZM48.3438 36L41.0438 22.75H38.9938V36H30.4438V0.899999H44.7938C47.5604 0.899999 49.9104 1.38333 51.8438 2.35C53.8104 3.31666 55.2771 4.65 56.2438 6.35C57.2104 8.01666 57.6938 9.88333 57.6938 11.95C57.6938 14.2833 57.0271 16.3667 55.6938 18.2C54.3938 20.0333 52.4604 21.3333 49.8938 22.1L57.9938 36H48.3438ZM38.9938 16.7H44.2938C45.8604 16.7 47.0271 16.3167 47.7938 15.55C48.5938 14.7833 48.9938 13.7 48.9938 12.3C48.9938 10.9667 48.5938 9.91667 47.7938 9.15C47.0271 8.38333 45.8604 8 44.2938 8H38.9938V16.7ZM71.6109 7.75V14.85H83.0609V21.45H71.6109V29.15H84.5609V36H63.0609V0.899999H84.5609V7.75H71.6109ZM115.112 42L110.612 35.95C109.278 36.2167 107.978 36.35 106.712 36.35C103.412 36.35 100.378 35.5833 97.6117 34.05C94.8784 32.5167 92.6951 30.3833 91.0617 27.65C89.4617 24.8833 88.6617 21.7833 88.6617 18.35C88.6617 14.9167 89.4617 11.8333 91.0617 9.1C92.6951 6.36667 94.8784 4.23333 97.6117 2.7C100.378 1.16667 103.412 0.399999 106.712 0.399999C110.012 0.399999 113.028 1.16667 115.762 2.7C118.528 4.23333 120.695 6.36667 122.262 9.1C123.862 11.8333 124.662 14.9167 124.662 18.35C124.662 21.35 124.045 24.1 122.812 26.6C121.612 29.0667 119.928 31.1167 117.762 32.75L125.462 42H115.112ZM97.4117 18.35C97.4117 21.45 98.2451 23.9333 99.9117 25.8C101.612 27.6333 103.878 28.55 106.712 28.55C109.512 28.55 111.745 27.6167 113.412 25.75C115.112 23.8833 115.962 21.4167 115.962 18.35C115.962 15.25 115.112 12.7833 113.412 10.95C111.745 9.08333 109.512 8.15 106.712 8.15C103.878 8.15 101.612 9.06666 99.9117 10.9C98.2451 12.7333 97.4117 15.2167 97.4117 18.35ZM137.916 0.899999V21.9C137.916 24 138.433 25.6167 139.466 26.75C140.499 27.8833 142.016 28.45 144.016 28.45C146.016 28.45 147.549 27.8833 148.616 26.75C149.683 25.6167 150.216 24 150.216 21.9V0.899999H158.766V21.85C158.766 24.9833 158.099 27.6333 156.766 29.8C155.433 31.9667 153.633 33.6 151.366 34.7C149.133 35.8 146.633 36.35 143.866 36.35C141.099 36.35 138.616 35.8167 136.416 34.75C134.249 33.65 132.533 32.0167 131.266 29.85C129.999 27.65 129.366 24.9833 129.366 21.85V0.899999H137.916ZM173.32 7.75V14.85H184.77V21.45H173.32V29.15H186.27V36H164.77V0.899999H186.27V7.75H173.32ZM223.221 36H214.671L200.371 14.35V36H191.821V0.899999H200.371L214.671 22.65V0.899999H223.221V36ZM254.668 0.899999V7.75H245.368V36H236.818V7.75H227.518V0.899999H254.668ZM267.509 29.4H278.709V36H258.959V0.899999H267.509V29.4ZM312.888 0.899999L300.738 24.4V36H292.188V24.4L280.038 0.899999H289.738L296.538 15.6L303.288 0.899999H312.888ZM24.95 84.8H11.85L9.75 91H0.8L13.5 55.9H23.4L36.1 91H27.05L24.95 84.8ZM22.75 78.2L18.4 65.35L14.1 78.2H22.75ZM52.6652 91.35C50.0986 91.35 47.7986 90.9333 45.7652 90.1C43.7319 89.2667 42.0986 88.0333 40.8652 86.4C39.6652 84.7667 39.0319 82.8 38.9652 80.5H48.0652C48.1986 81.8 48.6486 82.8 49.4152 83.5C50.1819 84.1667 51.1819 84.5 52.4152 84.5C53.6819 84.5 54.6819 84.2167 55.4152 83.65C56.1486 83.05 56.5152 82.2333 56.5152 81.2C56.5152 80.3333 56.2152 79.6167 55.6152 79.05C55.0486 78.4833 54.3319 78.0167 53.4652 77.65C52.6319 77.2833 51.4319 76.8667 49.8652 76.4C47.5986 75.7 45.7486 75 44.3152 74.3C42.8819 73.6 41.6486 72.5667 40.6152 71.2C39.5819 69.8333 39.0652 68.05 39.0652 65.85C39.0652 62.5833 40.2486 60.0333 42.6152 58.2C44.9819 56.3333 48.0652 55.4 51.8652 55.4C55.7319 55.4 58.8486 56.3333 61.2152 58.2C63.5819 60.0333 64.8486 62.6 65.0152 65.9H55.7652C55.6986 64.7667 55.2819 63.8833 54.5152 63.25C53.7486 62.5833 52.7652 62.25 51.5652 62.25C50.5319 62.25 49.6986 62.5333 49.0652 63.1C48.4319 63.6333 48.1152 64.4167 48.1152 65.45C48.1152 66.5833 48.6486 67.4667 49.7152 68.1C50.7819 68.7333 52.4486 69.4167 54.7152 70.15C56.9819 70.9167 58.8152 71.65 60.2152 72.35C61.6486 73.05 62.8819 74.0667 63.9152 75.4C64.9486 76.7333 65.4652 78.45 65.4652 80.55C65.4652 82.55 64.9486 84.3667 63.9152 86C62.9152 87.6333 61.4486 88.9333 59.5152 89.9C57.5819 90.8667 55.2986 91.35 52.6652 91.35ZM91.077 91L79.277 75.5V91H70.727V55.9H79.277V71.3L90.977 55.9H101.027L87.427 73.1L101.527 91H91.077ZM114.14 62.75V69.85H125.59V76.45H114.14V84.15H127.09V91H105.59V55.9H127.09V62.75H114.14ZM145.791 55.9C149.491 55.9 152.724 56.6333 155.491 58.1C158.258 59.5667 160.391 61.6333 161.891 64.3C163.424 66.9333 164.191 69.9833 164.191 73.45C164.191 76.8833 163.424 79.9333 161.891 82.6C160.391 85.2667 158.241 87.3333 155.441 88.8C152.674 90.2667 149.458 91 145.791 91H132.641V55.9H145.791ZM145.241 83.6C148.474 83.6 150.991 82.7167 152.791 80.95C154.591 79.1833 155.491 76.6833 155.491 73.45C155.491 70.2167 154.591 67.7 152.791 65.9C150.991 64.1 148.474 63.2 145.241 63.2H141.191V83.6H145.241ZM28.1 152L23.6 145.95C22.2667 146.217 20.9667 146.35 19.7 146.35C16.4 146.35 13.3667 145.583 10.6 144.05C7.86667 142.517 5.68333 140.383 4.05 137.65C2.45 134.883 1.65 131.783 1.65 128.35C1.65 124.917 2.45 121.833 4.05 119.1C5.68333 116.367 7.86667 114.233 10.6 112.7C13.3667 111.167 16.4 110.4 19.7 110.4C23 110.4 26.0167 111.167 28.75 112.7C31.5167 114.233 33.6833 116.367 35.25 119.1C36.85 121.833 37.65 124.917 37.65 128.35C37.65 131.35 37.0333 134.1 35.8 136.6C34.6 139.067 32.9167 141.117 30.75 142.75L38.45 152H28.1ZM10.4 128.35C10.4 131.45 11.2333 133.933 12.9 135.8C14.6 137.633 16.8667 138.55 19.7 138.55C22.5 138.55 24.7333 137.617 26.4 135.75C28.1 133.883 28.95 131.417 28.95 128.35C28.95 125.25 28.1 122.783 26.4 120.95C24.7333 119.083 22.5 118.15 19.7 118.15C16.8667 118.15 14.6 119.067 12.9 120.9C11.2333 122.733 10.4 125.217 10.4 128.35ZM50.9043 110.9V131.9C50.9043 134 51.421 135.617 52.4543 136.75C53.4876 137.883 55.0043 138.45 57.0043 138.45C59.0043 138.45 60.5376 137.883 61.6043 136.75C62.671 135.617 63.2043 134 63.2043 131.9V110.9H71.7543V131.85C71.7543 134.983 71.0876 137.633 69.7543 139.8C68.421 141.967 66.621 143.6 64.3543 144.7C62.121 145.8 59.621 146.35 56.8543 146.35C54.0876 146.35 51.6043 145.817 49.4043 144.75C47.2376 143.65 45.521 142.017 44.2543 139.85C42.9876 137.65 42.3543 134.983 42.3543 131.85V110.9H50.9043ZM86.3082 117.75V124.85H97.7582V131.45H86.3082V139.15H99.2582V146H77.7582V110.9H99.2582V117.75H86.3082ZM117.509 146.35C114.942 146.35 112.642 145.933 110.609 145.1C108.576 144.267 106.942 143.033 105.709 141.4C104.509 139.767 103.876 137.8 103.809 135.5H112.909C113.042 136.8 113.492 137.8 114.259 138.5C115.026 139.167 116.026 139.5 117.259 139.5C118.526 139.5 119.526 139.217 120.259 138.65C120.992 138.05 121.359 137.233 121.359 136.2C121.359 135.333 121.059 134.617 120.459 134.05C119.892 133.483 119.176 133.017 118.309 132.65C117.476 132.283 116.276 131.867 114.709 131.4C112.442 130.7 110.592 130 109.159 129.3C107.726 128.6 106.492 127.567 105.459 126.2C104.426 124.833 103.909 123.05 103.909 120.85C103.909 117.583 105.092 115.033 107.459 113.2C109.826 111.333 112.909 110.4 116.709 110.4C120.576 110.4 123.692 111.333 126.059 113.2C128.426 115.033 129.692 117.6 129.859 120.9H120.609C120.542 119.767 120.126 118.883 119.359 118.25C118.592 117.583 117.609 117.25 116.409 117.25C115.376 117.25 114.542 117.533 113.909 118.1C113.276 118.633 112.959 119.417 112.959 120.45C112.959 121.583 113.492 122.467 114.559 123.1C115.626 123.733 117.292 124.417 119.559 125.15C121.826 125.917 123.659 126.65 125.059 127.35C126.492 128.05 127.726 129.067 128.759 130.4C129.792 131.733 130.309 133.45 130.309 135.55C130.309 137.55 129.792 139.367 128.759 141C127.759 142.633 126.292 143.933 124.359 144.9C122.426 145.867 120.142 146.35 117.509 146.35ZM160.821 110.9V117.75H151.521V146H142.971V117.75H133.671V110.9H160.821ZM173.662 110.9V146H165.112V110.9H173.662ZM196.458 146.35C193.158 146.35 190.124 145.583 187.358 144.05C184.624 142.517 182.441 140.383 180.808 137.65C179.208 134.883 178.408 131.783 178.408 128.35C178.408 124.917 179.208 121.833 180.808 119.1C182.441 116.367 184.624 114.233 187.358 112.7C190.124 111.167 193.158 110.4 196.458 110.4C199.758 110.4 202.774 111.167 205.508 112.7C208.274 114.233 210.441 116.367 212.008 119.1C213.608 121.833 214.408 124.917 214.408 128.35C214.408 131.783 213.608 134.883 212.008 137.65C210.408 140.383 208.241 142.517 205.508 144.05C202.774 145.583 199.758 146.35 196.458 146.35ZM196.458 138.55C199.258 138.55 201.491 137.617 203.158 135.75C204.858 133.883 205.708 131.417 205.708 128.35C205.708 125.25 204.858 122.783 203.158 120.95C201.491 119.083 199.258 118.15 196.458 118.15C193.624 118.15 191.358 119.067 189.658 120.9C187.991 122.733 187.158 125.217 187.158 128.35C187.158 131.45 187.991 133.933 189.658 135.8C191.358 137.633 193.624 138.55 196.458 138.55ZM250.564 146H242.014L227.714 124.35V146H219.164V110.9H227.714L242.014 132.65V110.9H250.564V146ZM269.462 146.35C266.895 146.35 264.595 145.933 262.562 145.1C260.529 144.267 258.895 143.033 257.662 141.4C256.462 139.767 255.829 137.8 255.762 135.5H264.862C264.995 136.8 265.445 137.8 266.212 138.5C266.979 139.167 267.979 139.5 269.212 139.5C270.479 139.5 271.479 139.217 272.212 138.65C272.945 138.05 273.312 137.233 273.312 136.2C273.312 135.333 273.012 134.617 272.412 134.05C271.845 133.483 271.129 133.017 270.262 132.65C269.429 132.283 268.229 131.867 266.662 131.4C264.395 130.7 262.545 130 261.112 129.3C259.679 128.6 258.445 127.567 257.412 126.2C256.379 124.833 255.862 123.05 255.862 120.85C255.862 117.583 257.045 115.033 259.412 113.2C261.779 111.333 264.862 110.4 268.662 110.4C272.529 110.4 275.645 111.333 278.012 113.2C280.379 115.033 281.645 117.6 281.812 120.9H272.562C272.495 119.767 272.079 118.883 271.312 118.25C270.545 117.583 269.562 117.25 268.362 117.25C267.329 117.25 266.495 117.533 265.862 118.1C265.229 118.633 264.912 119.417 264.912 120.45C264.912 121.583 265.445 122.467 266.512 123.1C267.579 123.733 269.245 124.417 271.512 125.15C273.779 125.917 275.612 126.65 277.012 127.35C278.445 128.05 279.679 129.067 280.712 130.4C281.745 131.733 282.262 133.45 282.262 135.55C282.262 137.55 281.745 139.367 280.712 141C279.712 142.633 278.245 143.933 276.312 144.9C274.379 145.867 272.095 146.35 269.462 146.35Z" fill="#575757"/>
</svg>
