<svg width="366" height="92" viewBox="0 0 366 92" fill="none" xmlns="http://www.w3.org/2000/svg">
<path d="M27.35 0.899999V7.75H18.05V36H9.5V7.75H0.2V0.899999H27.35ZM40.191 7.75V14.85H51.641V21.45H40.191V29.15H53.141V36H31.641V0.899999H53.141V7.75H40.191ZM76.5918 36L69.2918 22.75H67.2418V36H58.6918V0.899999H73.0418C75.8085 0.899999 78.1585 1.38333 80.0918 2.35C82.0585 3.31666 83.5251 4.65 84.4918 6.35C85.4585 8.01666 85.9418 9.88333 85.9418 11.95C85.9418 14.2833 85.2751 16.3667 83.9418 18.2C82.6418 20.0333 80.7085 21.3333 78.1418 22.1L86.2418 36H76.5918ZM67.2418 16.7H72.5418C74.1085 16.7 75.2751 16.3167 76.0418 15.55C76.8418 14.7833 77.2418 13.7 77.2418 12.3C77.2418 10.9667 76.8418 9.91667 76.0418 9.15C75.2751 8.38333 74.1085 8 72.5418 8H67.2418V16.7ZM131.059 0.899999V36H122.509V14.95L114.659 36H107.759L99.859 14.9V36H91.309V0.899999H101.409L111.259 25.2L121.009 0.899999H131.059ZM149.907 36.35C147.341 36.35 145.041 35.9333 143.007 35.1C140.974 34.2667 139.341 33.0333 138.107 31.4C136.907 29.7667 136.274 27.8 136.207 25.5H145.307C145.441 26.8 145.891 27.8 146.657 28.5C147.424 29.1667 148.424 29.5 149.657 29.5C150.924 29.5 151.924 29.2167 152.657 28.65C153.391 28.05 153.757 27.2333 153.757 26.2C153.757 25.3333 153.457 24.6167 152.857 24.05C152.291 23.4833 151.574 23.0167 150.707 22.65C149.874 22.2833 148.674 21.8667 147.107 21.4C144.841 20.7 142.991 20 141.557 19.3C140.124 18.6 138.891 17.5667 137.857 16.2C136.824 14.8333 136.307 13.05 136.307 10.85C136.307 7.58333 137.491 5.03333 139.857 3.2C142.224 1.33333 145.307 0.399999 149.107 0.399999C152.974 0.399999 156.091 1.33333 158.457 3.2C160.824 5.03333 162.091 7.6 162.257 10.9H153.007C152.941 9.76667 152.524 8.88333 151.757 8.25C150.991 7.58333 150.007 7.25 148.807 7.25C147.774 7.25 146.941 7.53333 146.307 8.1C145.674 8.63333 145.357 9.41666 145.357 10.45C145.357 11.5833 145.891 12.4667 146.957 13.1C148.024 13.7333 149.691 14.4167 151.957 15.15C154.224 15.9167 156.057 16.65 157.457 17.35C158.891 18.05 160.124 19.0667 161.157 20.4C162.191 21.7333 162.707 23.45 162.707 25.55C162.707 27.55 162.191 29.3667 161.157 31C160.157 32.6333 158.691 33.9333 156.757 34.9C154.824 35.8667 152.541 36.35 149.907 36.35ZM28.95 91L25.7 87.85C22.4667 90.3167 18.6 91.55 14.1 91.55C11.4 91.55 9.05 91.1167 7.05 90.25C5.05 89.35 3.5 88.1 2.4 86.5C1.33333 84.8667 0.8 82.9667 0.8 80.8C0.8 78.6 1.38333 76.6167 2.55 74.85C3.75 73.05 5.53333 71.5833 7.9 70.45C7.03333 69.3833 6.41667 68.3667 6.05 67.4C5.68333 66.4 5.5 65.3167 5.5 64.15C5.5 62.4833 5.93333 60.9667 6.8 59.6C7.66667 58.2333 8.91667 57.1667 10.55 56.4C12.2167 55.6 14.1833 55.2 16.45 55.2C18.75 55.2 20.7 55.6167 22.3 56.45C23.9 57.2833 25.1 58.4 25.9 59.8C26.7 61.2 27.0667 62.7333 27 64.4H18.95C18.9833 63.5 18.75 62.8167 18.25 62.35C17.7833 61.85 17.15 61.6 16.35 61.6C15.55 61.6 14.8833 61.8333 14.35 62.3C13.8167 62.7667 13.55 63.3667 13.55 64.1C13.55 64.8 13.7667 65.5333 14.2 66.3C14.6667 67.0667 15.3833 67.95 16.35 68.95L24.9 77.3C24.9667 77.1333 25.05 76.9333 25.15 76.7C25.2833 76.4667 25.4167 76.2 25.55 75.9L27.4 72.75H35.95L33.55 77.1C32.65 79.0667 31.6167 80.9333 30.45 82.7L38.9 91H28.95ZM14.5 84.65C16.7333 84.65 18.7167 84.0167 20.45 82.75L12.65 75.2C10.25 76.4333 9.05 78.1 9.05 80.2C9.05 81.4667 9.53333 82.5333 10.5 83.4C11.5 84.2333 12.8333 84.65 14.5 84.65ZM51.1383 73.4C51.1383 69.9333 51.8883 66.85 53.3883 64.15C54.8883 61.4167 56.9716 59.3 59.6383 57.8C62.3383 56.2667 65.3883 55.5 68.7883 55.5C72.9549 55.5 76.5216 56.6 79.4883 58.8C82.4549 61 84.4383 64 85.4383 67.8H76.0383C75.3383 66.3333 74.3383 65.2167 73.0383 64.45C71.7716 63.6833 70.3216 63.3 68.6883 63.3C66.0549 63.3 63.9216 64.2167 62.2883 66.05C60.6549 67.8833 59.8383 70.3333 59.8383 73.4C59.8383 76.4667 60.6549 78.9167 62.2883 80.75C63.9216 82.5833 66.0549 83.5 68.6883 83.5C70.3216 83.5 71.7716 83.1167 73.0383 82.35C74.3383 81.5833 75.3383 80.4667 76.0383 79H85.4383C84.4383 82.8 82.4549 85.8 79.4883 88C76.5216 90.1667 72.9549 91.25 68.7883 91.25C65.3883 91.25 62.3383 90.5 59.6383 89C56.9716 87.4667 54.8883 85.35 53.3883 82.65C51.8883 79.95 51.1383 76.8667 51.1383 73.4ZM107.274 91.35C103.974 91.35 100.941 90.5833 98.1742 89.05C95.4409 87.5167 93.2576 85.3833 91.6242 82.65C90.0242 79.8833 89.2242 76.7833 89.2242 73.35C89.2242 69.9167 90.0242 66.8333 91.6242 64.1C93.2576 61.3667 95.4409 59.2333 98.1742 57.7C100.941 56.1667 103.974 55.4 107.274 55.4C110.574 55.4 113.591 56.1667 116.324 57.7C119.091 59.2333 121.258 61.3667 122.824 64.1C124.424 66.8333 125.224 69.9167 125.224 73.35C125.224 76.7833 124.424 79.8833 122.824 82.65C121.224 85.3833 119.058 87.5167 116.324 89.05C113.591 90.5833 110.574 91.35 107.274 91.35ZM107.274 83.55C110.074 83.55 112.308 82.6167 113.974 80.75C115.674 78.8833 116.524 76.4167 116.524 73.35C116.524 70.25 115.674 67.7833 113.974 65.95C112.308 64.0833 110.074 63.15 107.274 63.15C104.441 63.15 102.174 64.0667 100.474 65.9C98.8076 67.7333 97.9742 70.2167 97.9742 73.35C97.9742 76.45 98.8076 78.9333 100.474 80.8C102.174 82.6333 104.441 83.55 107.274 83.55ZM161.381 91H152.831L138.531 69.35V91H129.981V55.9H138.531L152.831 77.65V55.9H161.381V91ZM180.729 55.9C184.429 55.9 187.662 56.6333 190.429 58.1C193.195 59.5667 195.329 61.6333 196.829 64.3C198.362 66.9333 199.129 69.9833 199.129 73.45C199.129 76.8833 198.362 79.9333 196.829 82.6C195.329 85.2667 193.179 87.3333 190.379 88.8C187.612 90.2667 184.395 91 180.729 91H167.579V55.9H180.729ZM180.179 83.6C183.412 83.6 185.929 82.7167 187.729 80.95C189.529 79.1833 190.429 76.6833 190.429 73.45C190.429 70.2167 189.529 67.7 187.729 65.9C185.929 64.1 183.412 63.2 180.179 63.2H176.129V83.6H180.179ZM212.457 55.9V91H203.907V55.9H212.457ZM243.903 55.9V62.75H234.603V91H226.053V62.75H216.753V55.9H243.903ZM256.744 55.9V91H248.194V55.9H256.744ZM279.54 91.35C276.24 91.35 273.207 90.5833 270.44 89.05C267.707 87.5167 265.523 85.3833 263.89 82.65C262.29 79.8833 261.49 76.7833 261.49 73.35C261.49 69.9167 262.29 66.8333 263.89 64.1C265.523 61.3667 267.707 59.2333 270.44 57.7C273.207 56.1667 276.24 55.4 279.54 55.4C282.84 55.4 285.857 56.1667 288.59 57.7C291.357 59.2333 293.523 61.3667 295.09 64.1C296.69 66.8333 297.49 69.9167 297.49 73.35C297.49 76.7833 296.69 79.8833 295.09 82.65C293.49 85.3833 291.323 87.5167 288.59 89.05C285.857 90.5833 282.84 91.35 279.54 91.35ZM279.54 83.55C282.34 83.55 284.573 82.6167 286.24 80.75C287.94 78.8833 288.79 76.4167 288.79 73.35C288.79 70.25 287.94 67.7833 286.24 65.95C284.573 64.0833 282.34 63.15 279.54 63.15C276.707 63.15 274.44 64.0667 272.74 65.9C271.073 67.7333 270.24 70.2167 270.24 73.35C270.24 76.45 271.073 78.9333 272.74 80.8C274.44 82.6333 276.707 83.55 279.54 83.55ZM333.646 91H325.096L310.796 69.35V91H302.246V55.9H310.796L325.096 77.65V55.9H333.646V91ZM352.544 91.35C349.977 91.35 347.677 90.9333 345.644 90.1C343.611 89.2667 341.977 88.0333 340.744 86.4C339.544 84.7667 338.911 82.8 338.844 80.5H347.944C348.077 81.8 348.527 82.8 349.294 83.5C350.061 84.1667 351.061 84.5 352.294 84.5C353.561 84.5 354.561 84.2167 355.294 83.65C356.027 83.05 356.394 82.2333 356.394 81.2C356.394 80.3333 356.094 79.6167 355.494 79.05C354.927 78.4833 354.211 78.0167 353.344 77.65C352.511 77.2833 351.311 76.8667 349.744 76.4C347.477 75.7 345.627 75 344.194 74.3C342.761 73.6 341.527 72.5667 340.494 71.2C339.461 69.8333 338.944 68.05 338.944 65.85C338.944 62.5833 340.127 60.0333 342.494 58.2C344.861 56.3333 347.944 55.4 351.744 55.4C355.611 55.4 358.727 56.3333 361.094 58.2C363.461 60.0333 364.727 62.6 364.894 65.9H355.644C355.577 64.7667 355.161 63.8833 354.394 63.25C353.627 62.5833 352.644 62.25 351.444 62.25C350.411 62.25 349.577 62.5333 348.944 63.1C348.311 63.6333 347.994 64.4167 347.994 65.45C347.994 66.5833 348.527 67.4667 349.594 68.1C350.661 68.7333 352.327 69.4167 354.594 70.15C356.861 70.9167 358.694 71.65 360.094 72.35C361.527 73.05 362.761 74.0667 363.794 75.4C364.827 76.7333 365.344 78.45 365.344 80.55C365.344 82.55 364.827 84.3667 363.794 86C362.794 87.6333 361.327 88.9333 359.394 89.9C357.461 90.8667 355.177 91.35 352.544 91.35Z" fill="#575757"/>
</svg>
